<svg version="1.1" id="Layer_1" xmlns="http://www.w3.org/2000/svg" xmlns:xlink="http://www.w3.org/1999/xlink" x="0px" y="0px"
	 width="400%" height="400%" viewBox="0 0 1024 1024" enable-background="new 0 0 1024 1024" xml:space="preserve">
<path fill="#000000" opacity="1.000000" stroke="none" 
	d="
M466.610931,756.187744 
	C476.295563,759.806091 485.983154,761.811951 495.684448,763.880798 
	C511.923553,767.343811 528.352905,767.422852 544.774048,766.876404 
	C562.704346,766.279663 579.701233,761.650024 595.825867,753.641663 
	C628.075073,737.624878 653.214539,713.227051 674.729126,685.133545 
	C690.425476,664.637573 702.907043,642.051331 712.348755,617.796387 
	C716.944580,605.990173 720.531860,593.949402 723.931946,581.825867 
	C725.623840,575.793274 725.861389,569.405212 727.251465,563.240845 
	C728.174133,559.149414 725.192932,558.214600 721.732239,558.219177 
	C706.899353,558.238892 692.066467,558.194519 677.233582,558.198853 
	C583.568542,558.226257 489.903534,558.262146 396.238495,558.289246 
	C387.010406,558.291870 380.199829,553.000671 373.936127,547.285461 
	C361.474426,535.914917 356.328583,521.421021 359.078094,504.872131 
	C362.072205,486.851044 373.241791,474.648590 389.805511,467.809082 
	C402.457886,462.584625 415.407074,462.689484 427.773773,469.410614 
	C431.572327,471.475067 434.569061,471.197662 437.359863,467.646576 
	C443.150726,460.278137 450.641144,454.590454 457.193695,447.977142 
	C465.385773,439.709198 473.224243,431.084442 482.027374,423.444244 
	C484.556915,421.248901 483.415955,419.554962 481.986145,417.459381 
	C466.189484,394.306702 475.814362,357.264618 505.517120,348.498779 
	C518.934143,344.539185 532.029846,344.507599 544.195740,352.668396 
	C547.666504,354.996582 550.392822,354.269928 553.408569,351.303284 
	C567.408813,337.530640 581.278809,323.639587 594.731812,309.326996 
	C600.407227,303.288971 600.427124,303.472412 597.347229,296.051147 
	C586.881592,270.833557 599.147522,244.633972 624.927856,236.149033 
	C650.334351,227.787125 671.797668,237.449997 683.034119,261.074646 
	C686.947876,269.303253 687.523376,277.731293 686.067627,287.173828 
	C683.473389,304.000458 673.924927,314.599182 659.837646,321.822906 
	C649.128235,327.314514 637.611938,328.129517 625.974548,324.176178 
	C621.676392,322.716003 618.186340,322.831421 614.484375,326.829498 
	C600.131653,342.330139 585.611816,357.711365 569.681641,371.637787 
	C566.421997,374.487457 565.872131,377.417297 566.822876,381.369019 
	C571.306213,400.004089 566.310852,415.719269 552.216675,428.740295 
	C539.824707,440.188721 524.866272,441.681763 509.276459,439.712891 
	C504.047211,439.052490 500.558136,440.535522 497.351349,443.974548 
	C483.624420,458.695709 469.862091,473.385834 454.915100,486.891724 
	C450.505035,490.876617 448.380341,494.988037 451.296265,500.875153 
	C453.049591,504.414886 452.035461,508.437103 452.105804,512.245117 
	C452.232544,519.105286 452.696075,519.646362 459.569427,519.646484 
	C509.068634,519.647644 558.567871,519.630737 608.067078,519.631470 
	C660.899170,519.632324 713.731262,519.644226 766.563354,519.657043 
	C774.047058,519.658813 774.402466,520.265503 773.602112,527.750854 
	C772.826050,535.008789 773.116089,542.318787 772.426392,549.628296 
	C770.383667,571.280273 766.940430,592.535706 760.621033,613.445740 
	C753.059448,638.465515 743.090027,662.283081 729.075012,684.325439 
	C717.997803,701.747253 706.133362,718.506714 691.194092,733.063660 
	C671.594177,752.161865 651.942688,771.116699 628.116821,784.958679 
	C610.064331,795.446472 590.804810,802.946533 570.325623,807.477661 
	C553.256348,811.254272 535.982178,811.742371 518.791870,810.652588 
	C504.503204,809.746826 490.252533,807.604980 476.083954,804.815918 
	C460.808136,801.808777 446.305511,796.911377 432.141663,790.834045 
	C404.576660,779.006775 379.397156,763.299316 356.866150,743.429565 
	C330.677185,720.333862 308.206696,694.147339 291.000458,663.659607 
	C281.408630,646.663879 274.447662,628.568848 268.462006,609.990479 
	C263.620697,594.964050 260.432037,579.603210 257.100616,564.248901 
	C255.977997,559.074646 256.700928,553.721008 255.801208,548.406433 
	C251.944138,525.623291 253.882019,502.594086 254.172470,479.693146 
	C254.309052,468.924286 256.655060,458.088348 258.862091,447.393341 
	C268.471924,400.824799 288.140381,358.875153 317.075897,321.312744 
	C334.380432,298.849060 355.443970,280.190155 378.571533,263.883514 
	C402.896576,246.732620 429.127014,233.112991 457.030212,222.815353 
	C468.060425,218.744690 479.569275,216.211578 491.039642,213.577866 
	C508.202667,209.636993 525.677856,208.390671 543.118103,206.706375 
	C548.368225,206.199326 550.383789,207.181244 550.958374,212.313843 
	C551.680542,218.764969 551.785278,225.333908 550.872009,231.758652 
	C550.360046,235.360229 549.355469,238.860794 549.564270,242.574707 
	C549.766052,246.163483 547.882019,247.510971 544.308228,247.446152 
	C538.316895,247.337494 532.316528,247.513824 526.324524,247.709900 
	C518.521240,247.965240 511.009399,250.073013 503.399231,251.538681 
	C482.016357,255.656967 462.060425,263.855042 442.744934,273.548889 
	C424.138275,282.886963 406.552002,293.888397 390.477631,307.304382 
	C360.582825,332.255188 337.920074,362.779694 321.340271,397.707794 
	C313.172760,414.914032 307.341980,433.070343 302.889221,451.805969 
	C296.635773,478.118164 295.724030,504.624878 296.307983,531.327820 
	C296.480530,539.218872 298.202606,547.090576 299.404999,554.941956 
	C302.995697,578.387756 309.797638,600.885132 319.641052,622.462341 
	C330.719360,646.746399 345.957733,668.208801 363.291046,688.421875 
	C386.201385,715.138550 414.168365,734.645935 446.191101,748.645203 
	C452.711273,751.495667 459.293945,754.301086 466.610931,756.187744 
z"/>
</svg>